STARTFONT 2.1
FONT xconq
SIZE 11 75 75
FONTBOUNDINGBOX 20 22 0 -8
STARTPROPERTIES 2
FONT_DESCENT 8
FONT_ASCENT 14
ENDPROPERTIES
CHARS 46
STARTCHAR C000
ENCODING 0
SWIDTH 1 0
DWIDTH 20 0
BBX 20 22 0 -8
BITMAP
800010
406020
209040
108080
088100
049200
026400
3108c0
489120
486120
586120
489120
3508c0
020400
049200
089100
10d080
20b040
409020
809010
000000
000000
ENDCHAR
STARTCHAR C040
ENCODING 32
SWIDTH 1 0
DWIDTH 20 0
BBX 20 22 0 -8
BITMAP
000000
000000
000000
000000
000000
000000
000000
000000
000000
000000
000000
000000
000000
000000
000000
000000
000000
000000
000000
000000
000000
000000
ENDCHAR
STARTCHAR #
ENCODING 35
SWIDTH 1 0
DWIDTH 20 0
BBX 20 22 0 -8
BITMAP
00000f
00000f
07fe0f
04010f
04010f
04010f
04010f
04010f
04010f
04010f
ffffff
04010f
04010f
04010f
04010f
04010f
04010f
04010f
04010f
07fe0f
00000f
00000f
ENDCHAR
STARTCHAR %
ENCODING 37
SWIDTH 1 0
DWIDTH 20 0
BBX 20 22 0 -8
BITMAP
000000
00e000
0d2000
120600
20e900
1c21c0
36c640
424940
4d2220
0128a0
560820
088240
1c3100
256860
448ca0
451420
180a40
028800
022300
019000
004000
000000
ENDCHAR
STARTCHAR '
ENCODING 39
SWIDTH 1 0
DWIDTH 20 0
BBX 20 22 0 -8
BITMAP
000000
000000
0007c0
000820
000820
000820
000820
000820
000820
000820
0007c0
000000
000000
000000
000000
000000
000000
000000
000000
000000
000000
000000
ENDCHAR
STARTCHAR (
ENCODING 40
SWIDTH 1 0
DWIDTH 20 0
BBX 20 22 0 -8
BITMAP
000000
000000
000000
000000
000000
000000
000000
000000
00f800
838610
760360
0c0180
3800c0
e00070
000010
000000
000000
000000
000000
000000
000000
000000
ENDCHAR
STARTCHAR *
ENCODING 42
SWIDTH 1 0
DWIDTH 20 0
BBX 20 22 0 -8
BITMAP
000000
000000
000000
00fe00
07e700
0dbf80
0bf380
1efee0
24bdd0
26b140
24b040
043000
203000
007000
003000
00fc00
00fe00
03fd00
04f680
003000
001000
000000
ENDCHAR
STARTCHAR +
ENCODING 43
SWIDTH 1 0
DWIDTH 20 0
BBX 20 22 0 -8
BITMAP
000000
000000
040100
040100
040100
040100
040100
040100
040100
040100
fffff0
040100
040100
040100
040100
040100
040100
040100
040100
040100
000000
000000
ENDCHAR
STARTCHAR ,
ENCODING 44
SWIDTH 1 0
DWIDTH 20 0
BBX 20 22 0 -8
BITMAP
000000
003800
000000
07ce00
000000
73ffc0
000000
3ff1f0
000000
ff3fe0
000000
3ffe70
000000
ffcf30
000000
3f7fe0
000000
1cfe00
000000
00f800
000000
000000
ENDCHAR
STARTCHAR C045
ENCODING 45
SWIDTH 1 0
DWIDTH 20 0
BBX 20 22 0 -8
BITMAP
00000f
00000f
00000f
00000f
00280f
00100f
0a000f
04005f
a0052f
41420f
00800f
28000f
10050f
00520f
00200f
0a00af
04004f
00280f
00100f
00000f
00000f
00000f
ENDCHAR
STARTCHAR .
ENCODING 46
SWIDTH 1 0
DWIDTH 20 0
BBX 20 22 0 -8
BITMAP
004000
00a000
031880
1c0700
000000
080200
360d80
c1f070
000000
004010
c1b060
3e0f80
000000
080200
360d80
c1f070
000000
004000
00a000
011800
000000
000000
ENDCHAR
STARTCHAR 0
ENCODING 48
SWIDTH 1 0
DWIDTH 20 0
BBX 20 22 0 -8
BITMAP
000000
000000
000000
000000
000380
000280
000280
000280
000380
000000
000000
000000
000000
000000
000000
000000
000000
000000
000000
000000
000000
000000
ENDCHAR
STARTCHAR 1
ENCODING 49
SWIDTH 1 0
DWIDTH 20 0
BBX 20 22 0 -8
BITMAP
000000
000000
000000
000000
000100
000100
000100
000100
000100
000000
000000
000000
000000
000000
000000
000000
000000
000000
000000
000000
000000
000000
ENDCHAR
STARTCHAR 2
ENCODING 50
SWIDTH 1 0
DWIDTH 20 0
BBX 20 22 0 -8
BITMAP
000000
000000
000000
000000
000380
000080
000380
000200
000380
000000
000000
000000
000000
000000
000000
000000
000000
000000
000000
000000
000000
000000
ENDCHAR
STARTCHAR 3
ENCODING 51
SWIDTH 1 0
DWIDTH 20 0
BBX 20 22 0 -8
BITMAP
000000
000000
000000
000000
000380
000080
000380
000080
000380
000000
000000
000000
000000
000000
000000
000000
000000
000000
000000
000000
000000
000000
ENDCHAR
STARTCHAR 4
ENCODING 52
SWIDTH 1 0
DWIDTH 20 0
BBX 20 22 0 -8
BITMAP
000000
000000
000000
000000
000280
000280
000380
000080
000080
000000
000000
000000
000000
000000
000000
000000
000000
000000
000000
000000
000000
000000
ENDCHAR
STARTCHAR 5
ENCODING 53
SWIDTH 1 0
DWIDTH 20 0
BBX 20 22 0 -8
BITMAP
000000
000000
000000
000000
000380
000200
000380
000080
000380
000000
000000
000000
000000
000000
000000
000000
000000
000000
000000
000000
000000
000000
ENDCHAR
STARTCHAR 6
ENCODING 54
SWIDTH 1 0
DWIDTH 20 0
BBX 20 22 0 -8
BITMAP
000000
000000
000000
000000
000380
000200
000380
000280
000380
000000
000000
000000
000000
000000
000000
000000
000000
000000
000000
000000
000000
000000
ENDCHAR
STARTCHAR 7
ENCODING 55
SWIDTH 1 0
DWIDTH 20 0
BBX 20 22 0 -8
BITMAP
000000
000000
000000
000000
000380
000080
000100
000100
000100
000000
000000
000000
000000
000000
000000
000000
000000
000000
000000
000000
000000
000000
ENDCHAR
STARTCHAR 8
ENCODING 56
SWIDTH 1 0
DWIDTH 20 0
BBX 20 22 0 -8
BITMAP
000000
000000
000000
000000
000380
000280
000380
000280
000380
000000
000000
000000
000000
000000
000000
000000
000000
000000
000000
000000
000000
000000
ENDCHAR
STARTCHAR 9
ENCODING 57
SWIDTH 1 0
DWIDTH 20 0
BBX 20 22 0 -8
BITMAP
000000
000000
000000
000000
000380
000280
000380
000080
000380
000000
000000
000000
000000
000000
000000
000000
000000
000000
000000
000000
000000
000000
ENDCHAR
STARTCHAR :
ENCODING 58
SWIDTH 1 0
DWIDTH 20 0
BBX 20 22 0 -8
BITMAP
000000
000000
000000
000000
008000
000000
000000
000000
000000
000000
000000
000000
000100
000000
000000
080000
000000
000000
000000
000000
000000
000000
ENDCHAR
STARTCHAR =
ENCODING 61
SWIDTH 1 0
DWIDTH 20 0
BBX 20 22 0 -8
BITMAP
000000
000000
01f000
000000
000400
7e4440
002480
1fa480
001500
7f1570
000000
07ff80
f00000
0207e0
222000
124fc0
124000
0a8000
0abf00
000000
000000
000000
ENDCHAR
STARTCHAR A
ENCODING 65
SWIDTH 1 0
DWIDTH 20 0
BBX 20 22 0 -8
BITMAP
000000
000000
000000
000000
000100
000280
000380
000280
000280
000000
000000
000000
000000
000000
000000
000000
000000
000000
000000
000000
000000
000000
ENDCHAR
STARTCHAR B
ENCODING 66
SWIDTH 1 0
DWIDTH 20 0
BBX 20 22 0 -8
BITMAP
000000
000000
000000
000000
000300
000280
000380
000280
000300
000000
000000
000000
000000
000000
000000
000000
000000
000000
000000
000000
000000
000000
ENDCHAR
STARTCHAR C
ENCODING 67
SWIDTH 1 0
DWIDTH 20 0
BBX 20 22 0 -8
BITMAP
000000
000000
000000
000000
000100
000280
000200
000280
000100
000000
000000
000000
000000
000000
000000
000000
000000
000000
000000
000000
000000
000000
ENDCHAR
STARTCHAR D
ENCODING 68
SWIDTH 1 0
DWIDTH 20 0
BBX 20 22 0 -8
BITMAP
000000
000000
000000
000000
000300
000280
000280
000280
000300
000000
000000
000000
000000
000000
000000
000000
000000
000000
000000
000000
000000
000000
ENDCHAR
STARTCHAR E
ENCODING 69
SWIDTH 1 0
DWIDTH 20 0
BBX 20 22 0 -8
BITMAP
000000
000000
000000
000000
000380
000200
000380
000200
000380
000000
000000
000000
000000
000000
000000
000000
000000
000000
000000
000000
000000
000000
ENDCHAR
STARTCHAR F
ENCODING 70
SWIDTH 1 0
DWIDTH 20 0
BBX 20 22 0 -8
BITMAP
000000
000000
000000
000000
000380
000200
000380
000200
000200
000000
000000
000000
000000
000000
000000
000000
000000
000000
000000
000000
000000
000000
ENDCHAR
STARTCHAR G
ENCODING 71
SWIDTH 1 0
DWIDTH 20 0
BBX 20 22 0 -8
BITMAP
000000
000000
000000
000000
000380
000200
000280
000280
000380
000000
000000
000000
000000
000000
000000
000000
000000
000000
000000
000000
000000
000000
ENDCHAR
STARTCHAR H
ENCODING 72
SWIDTH 1 0
DWIDTH 20 0
BBX 20 22 0 -8
BITMAP
000000
000000
000000
000000
000280
000280
000380
000280
000280
000000
000000
000000
000000
000000
000000
000000
000000
000000
000000
000000
000000
000000
ENDCHAR
STARTCHAR I
ENCODING 73
SWIDTH 1 0
DWIDTH 20 0
BBX 20 22 0 -8
BITMAP
000000
000000
000000
000000
000380
000100
000100
000100
000380
000000
000000
000000
000000
000000
000000
000000
000000
000000
000000
000000
000000
000000
ENDCHAR
STARTCHAR J
ENCODING 74
SWIDTH 1 0
DWIDTH 20 0
BBX 20 22 0 -8
BITMAP
000000
000000
000000
000000
0001c0
000080
000080
000280
000180
000000
000000
000000
000000
000000
000000
000000
000000
000000
000000
000000
000000
000000
ENDCHAR
STARTCHAR K
ENCODING 75
SWIDTH 1 0
DWIDTH 20 0
BBX 20 22 0 -8
BITMAP
000000
000000
000000
000000
000280
000280
000300
000280
000280
000000
000000
000000
000000
000000
000000
000000
000000
000000
000000
000000
000000
000000
ENDCHAR
STARTCHAR L
ENCODING 76
SWIDTH 1 0
DWIDTH 20 0
BBX 20 22 0 -8
BITMAP
000000
000000
000000
000000
000200
000200
000200
000200
000380
000000
000000
000000
000000
000000
000000
000000
000000
000000
000000
000000
000000
000000
ENDCHAR
STARTCHAR O
ENCODING 79
SWIDTH 1 0
DWIDTH 20 0
BBX 20 22 0 -8
BITMAP
006000
01f800
07fe00
1fff80
7fffe0
fffff0
fffff0
fffff0
fffff0
fffff0
fffff0
fffff0
fffff0
fffff0
fffff0
fffff0
fffff0
7fffe0
1fff80
07fe00
01f800
006000
ENDCHAR
STARTCHAR [
ENCODING 91
SWIDTH 1 0
DWIDTH 20 0
BBX 20 22 0 -8
BITMAP
000000
000000
000000
1fff80
3fffc0
3fffc0
3801c0
3801c0
3801c0
3801c0
3801c0
3801c0
3801c0
3801c0
3801c0
3801c0
3fffc0
3fffc0
1fff80
000000
000000
000000
ENDCHAR
STARTCHAR ]
ENCODING 93
SWIDTH 1 0
DWIDTH 20 0
BBX 20 22 0 -8
BITMAP
000000
000000
000000
000000
0fff00
100080
100080
100080
100080
100080
100080
100080
100080
100080
100080
100080
100080
0fff00
000000
000000
000000
000000
ENDCHAR
STARTCHAR ^
ENCODING 94
SWIDTH 1 0
DWIDTH 20 0
BBX 20 22 0 -8
BITMAP
000000
000000
000000
000000
006000
007000
00d000
019800
014c00
034600
065380
1c88c0
32a660
641120
000000
000000
000000
000000
000000
000000
000000
000000
ENDCHAR
STARTCHAR _
ENCODING 95
SWIDTH 1 0
DWIDTH 20 0
BBX 20 22 0 -8
BITMAP
000000
000000
000000
001000
001000
003000
003800
002800
065800
065800
0a5400
19d400
11da00
f34bf0
e24df0
c445f0
448280
000000
000000
000000
000000
000000
ENDCHAR
STARTCHAR `
ENCODING 96
SWIDTH 1 0
DWIDTH 20 0
BBX 20 22 0 -8
BITMAP
004000
002000
008800
061200
080080
43fe20
040100
481090
0e8780
8bfca0
088480
88a480
30a460
812200
2c1080
2a4210
889480
090280
045200
00a000
000000
004000
ENDCHAR
STARTCHAR b
ENCODING 98
SWIDTH 1 0
DWIDTH 20 0
BBX 20 22 0 -8
BITMAP
000000
000000
000000
000000
000000
000000
000000
000000
005000
019000
00e800
017000
00a800
012000
000000
000000
000000
000000
000000
000000
000000
000000
ENDCHAR
STARTCHAR c
ENCODING 99
SWIDTH 1 0
DWIDTH 20 0
BBX 20 22 0 -8
BITMAP
000000
000000
000000
000000
025000
012800
02aa00
0ca400
029800
056500
0af200
04f400
036c00
0c9300
015400
029200
024800
002800
000000
000000
000000
000000
ENDCHAR
STARTCHAR d
ENCODING 100
SWIDTH 1 0
DWIDTH 20 0
BBX 20 22 0 -8
BITMAP
000000
004000
01a000
029a00
1eb500
2a5280
452a40
3a5520
09fa20
65f9c0
13fca0
09fa20
6ffdc0
19f860
42af40
5452a0
054540
1aad00
029400
005000
000000
000000
ENDCHAR
STARTCHAR o
ENCODING 111
SWIDTH 1 0
DWIDTH 20 0
BBX 20 22 0 -8
BITMAP
006000
01f800
07fe00
1fff80
7fffe0
ffffe0
ffffe0
ffffe0
ffffe0
ffffe0
ffffe0
ffffe0
ffffe0
ffffe0
ffffe0
ffffe0
7fffe0
1fff80
07fe00
01f800
006000
000000
ENDCHAR
STARTCHAR ~
ENCODING 126
SWIDTH 1 0
DWIDTH 20 0
BBX 20 22 0 -8
BITMAP
004000
002000
008800
061200
094280
490c20
1a8280
485250
10a200
8a0920
08a500
e7f6f0
050100
895220
2c0a80
2a2a10
889480
090280
045200
00a000
000000
004000
ENDCHAR
ENDFONT
